<svg width="512" height="512" viewBox="0 0 512 512" xmlns="http://www.w3.org/2000/svg">
<rect width="512" height="512" rx="80" fill="#0a0a2a"/>
<defs>
  <radialGradient id="hg" cx="50%" cy="38%" r="62%">
    <stop offset="0%" stop-color="#6699ff"/>
    <stop offset="100%" stop-color="#3355cc"/>
  </radialGradient>
</defs>
<ellipse cx="256" cy="230" rx="200" ry="190" fill="#4466ff" opacity="0.09"/>
<path d="M256 370 C168 308 72 268 72 185 C72 133 108 95 152 95 C192 95 222 118 256 158 C290 118 320 95 360 95 C404 95 440 133 440 185 C440 268 344 308 256 370Z" fill="url(#hg)"/>
<path d="M256 356 C176 298 90 261 90 187 C90 141 122 110 160 110 C196 110 224 131 256 168 C288 131 316 110 352 110 C390 110 422 141 422 187 C422 261 336 298 256 356Z" fill="#5577ff" opacity="0.3"/>
<circle cx="256" cy="164" r="16" fill="white" opacity="0.95"/>
<path d="M242 186 Q256 180 270 186 L276 214 Q268 218 256 218 Q244 218 236 214Z" fill="white" opacity="0.95"/>
<line x1="236" y1="202" x2="218" y2="218" stroke="white" stroke-width="7" stroke-linecap="round" opacity="0.95"/>
<line x1="276" y1="202" x2="294" y2="218" stroke="white" stroke-width="7" stroke-linecap="round" opacity="0.95"/>
<line x1="248" y1="218" x2="240" y2="252" stroke="white" stroke-width="7" stroke-linecap="round" opacity="0.95"/>
<line x1="264" y1="218" x2="272" y2="252" stroke="white" stroke-width="7" stroke-linecap="round" opacity="0.95"/>
<text x="256" y="428" text-anchor="middle" font-family="Arial,sans-serif" font-size="44" font-weight="900" letter-spacing="8" fill="#4488ff">OVO</text>
<text x="256" y="476" text-anchor="middle" font-family="Arial,sans-serif" font-size="32" font-weight="900" letter-spacing="12" fill="#ff88cc">CARES</text>
</svg>
